<svg xmlns="http://www.w3.org/2000/svg" width="28" height="28" viewBox="0 0 28 28">
  <g id="Group_46" data-name="Group 46" transform="translate(-607.927 -701)">
    <rect id="Rectangle_16" data-name="Rectangle 16" width="28" height="28" rx="5" transform="translate(607.927 701)" fill="#726a95" opacity="0.15"/>
    <g id="users" transform="translate(612.107 706.757)">
      <g id="Group_48" data-name="Group 48" transform="translate(0 0)">
        <g id="Group_47" data-name="Group 47" transform="translate(0 0)">
          <path id="Path_53" data-name="Path 53" d="M10.426,52.17a2.261,2.261,0,0,0-1.759-.953l-.045,0A1.74,1.74,0,0,1,6.9,49.678a3.278,3.278,0,0,0,.7-.707A4.457,4.457,0,0,0,8.4,46.9a.408.408,0,0,0,.076-.119,3.483,3.483,0,0,0,.27-1.356,3.189,3.189,0,0,0-3.062-3.3,2.848,2.848,0,0,0-1.261.295,2.254,2.254,0,0,0-.437.08,3.064,3.064,0,0,0-1.779,3.8,3.771,3.771,0,0,0,.164.5.409.409,0,0,0,.072.115,4.042,4.042,0,0,0,1.5,2.749,1.74,1.74,0,0,1-1.726,1.539l-.041,0A2.259,2.259,0,0,0,0,53.472V55.9a.41.41,0,0,0,.41.41H7.662a.41.41,0,1,0,0-.821H.821V53.472a1.438,1.438,0,0,1,1.436-1.436l.041,0a2.543,2.543,0,0,0,.841-.17l1.943,2.8a.41.41,0,0,0,.675,0l1.943-2.8a2.543,2.543,0,0,0,.841.17l.041,0a1.44,1.44,0,0,1,1.174.609.41.41,0,0,0,.67-.474ZM4.213,43.3a1.458,1.458,0,0,1,.338-.055.41.41,0,0,0,.172-.047,2.045,2.045,0,0,1,.959-.241,2.36,2.36,0,0,1,2.24,2.392,1.465,1.465,0,0,0-.886-.3H4.89a.491.491,0,0,1-.456-.308.482.482,0,0,0-.913.06A2.821,2.821,0,0,1,2.956,45.9,2.2,2.2,0,0,1,4.213,43.3Zm-.962,3.476A3.666,3.666,0,0,0,4.1,45.608l0,0a1.3,1.3,0,0,0,.784.26H7.037a.652.652,0,0,1,.586.369,3.809,3.809,0,0,1-.685,2.244,1.917,1.917,0,0,1-1.518.87,1.877,1.877,0,0,1-1.433-.76A3.59,3.59,0,0,1,3.251,46.774Zm2.169,6.939L3.849,51.446a2.563,2.563,0,0,0,.858-1.382,2.383,2.383,0,0,0,1.425,0,2.563,2.563,0,0,0,.858,1.38Z" transform="translate(0 -42.135)" fill="#726a95"/>
        </g>
      </g>
      <g id="Group_50" data-name="Group 50" transform="translate(8.863 1.689)">
        <g id="Group_49" data-name="Group 49" transform="translate(0 0)">
          <path id="Path_54" data-name="Path 54" d="M238.983,95.7l-.041,0a1.74,1.74,0,0,1-1.727-1.54,3.648,3.648,0,0,0,1.19-1.582.41.41,0,0,0,.716.132,4.32,4.32,0,0,0-.135-5.295,3.029,3.029,0,0,0-2.271-1.112c-.045,0-.158,0-.176,0a3.074,3.074,0,0,0-1.38-.277,3.344,3.344,0,0,0-2.554,1.384,5,5,0,0,0-.893,3.615,4.954,4.954,0,0,0,.4,1.389.41.41,0,0,0,.723.043c.033-.054.075-.121.122-.187a4.066,4.066,0,0,0,.818,1.449,3.116,3.116,0,0,0,.487.439,1.74,1.74,0,0,1-1.726,1.538l-.041,0a2.26,2.26,0,0,0-2.176,2.255v2.43a.41.41,0,0,0,.41.41h10.018a.41.41,0,0,0,.41-.41v-2.43A2.259,2.259,0,0,0,238.983,95.7Zm-6.362-4.3a4.321,4.321,0,0,1-.095-.486,4.016,4.016,0,0,1-.039-.454,3.97,3.97,0,0,1,.77-2.547,2.539,2.539,0,0,1,1.929-1.063,2.349,2.349,0,0,1,1.094.242.417.417,0,0,0,.2.043l.225-.01a2.22,2.22,0,0,1,1.662.827,3.366,3.366,0,0,1,.775,2.091,3.572,3.572,0,0,1-.176,1.241q-.058-.155-.13-.305a3.662,3.662,0,0,0-1.878-1.839.41.41,0,0,0-.544.236,3.035,3.035,0,0,1-.2.427,1.224,1.224,0,0,1-1.13.6c-.072,0-.146,0-.218,0a3.241,3.241,0,0,0-1.03.2A3.617,3.617,0,0,0,232.621,91.4Zm1.01.223a2.363,2.363,0,0,1,1.263-.405c.054,0,.109,0,.163,0a2.039,2.039,0,0,0,1.875-1.016q.034-.06.065-.122a2.855,2.855,0,0,1,.935.95c0,.012,0,.024,0,.037a3.656,3.656,0,0,1-.756,2.012,1.877,1.877,0,0,1-1.433.76C234.771,93.837,233.912,92.918,233.63,91.621Zm1.4,2.927a2.355,2.355,0,0,0,1.424,0,2.568,2.568,0,0,0,1.224,1.635,2.01,2.01,0,0,1-3.873,0A2.567,2.567,0,0,0,235.027,94.547Zm5.311,5.427h-9.2V97.956a1.438,1.438,0,0,1,1.436-1.436l.041,0a2.556,2.556,0,0,0,.415-.047,2.83,2.83,0,0,0,5.414,0,2.55,2.55,0,0,0,.415.046l.041,0a1.438,1.438,0,0,1,1.436,1.436Z" transform="translate(-230.32 -86.026)" fill="#726a95"/>
        </g>
      </g>
    </g>
  </g>
</svg>
