<svg xmlns="http://www.w3.org/2000/svg" width="28" height="28" viewBox="0 0 28 28">
  <g id="Group_45" data-name="Group 45" transform="translate(-608 -701)">
    <rect id="Rectangle_16" data-name="Rectangle 16" width="28" height="28" rx="5" transform="translate(608 701)" fill="#726a95" opacity="0.15"/>
    <g id="global-research" transform="translate(613.727 706.727)">
      <g id="Group_44" data-name="Group 44" transform="translate(0 0)">
        <g id="Group_43" data-name="Group 43">
          <g id="Group_42" data-name="Group 42">
            <path id="Path_51" data-name="Path 51" d="M16.175,14.466l-2.142-1.838a.454.454,0,0,0-.1-.478l-.42-.42a3.53,3.53,0,0,0,.333-1.512,3.582,3.582,0,0,0-.359-1.564A6.842,6.842,0,1,0,8.73,13.422a3.533,3.533,0,0,0,1.561.359,3.574,3.574,0,0,0,1.509-.333l.42.42a.447.447,0,0,0,.478.1c1.977,2.3,1.826,2.133,1.9,2.207a1.164,1.164,0,1,0,1.577-1.709Zm-4.1-11.606a6.479,6.479,0,0,1,1.179,5.389A3.793,3.793,0,0,0,12.8,7.7a3.539,3.539,0,0,0-2.517-1.044H10.2a1.132,1.132,0,0,0,.048-.753,1.307,1.307,0,0,0-1.179-1,.788.788,0,0,0-.872.63c-.032.294.126.582-.036.756-.21.226-.662.187-1.208-.1C6.229,5.809,5.68,5.17,5.738,4.918c0,0,0-.006,0-.01.171-.029.7.317.937-.013A.346.346,0,0,0,6.733,4.6a1.55,1.55,0,0,0-.313-.582,1.211,1.211,0,0,1-.078-.107,6.3,6.3,0,0,1,.837-.368c.523-.446.139-1.131.052-1.574A2.87,2.87,0,0,1,7.683.342a6.5,6.5,0,0,1,4.391,2.517ZM2.927,1.635A6.476,6.476,0,0,1,6.875.294c.149,0,.3.006.449.016a3.21,3.21,0,0,0-.417,1.683.063.063,0,0,0,0,.026c.081.443.385.973.078,1.263-.714.252-.914.368-.966.549-.045.152.052.275.145.391a1.229,1.229,0,0,1,.255.465c.036.123-.607-.2-.85-.055a.324.324,0,0,0-.149.216,1.121,1.121,0,0,0,.385.872,3.831,3.831,0,0,0,1,.759c.695.368,1.276.381,1.6.036.284-.31.1-.691.12-.931a.468.468,0,0,1,.53-.355.97.97,0,0,1,.882.724c0,.006,0,.016,0,.023a.837.837,0,0,1-.12.711,3.566,3.566,0,0,0-2.937,2.5c-.349-.132-.911-.116-1.309-.265-1.06-.439-1.244-1.48-1.441-2.582A3.119,3.119,0,0,0,2.9,4.055,2.874,2.874,0,0,0,1.26,3.509,6.525,6.525,0,0,1,2.927,1.635ZM1.7,10.779a6.524,6.524,0,0,1-.624-6.937,2.55,2.55,0,0,1,1.635.481A2.817,2.817,0,0,1,3.809,6.4c.2,1.141.414,2.317,1.638,2.824a.01.01,0,0,1,.006,0c.459.171,1.04.145,1.344.278a3.593,3.593,0,0,0,.216,2.116A4.227,4.227,0,0,1,4.5,12.9a6.477,6.477,0,0,1-2.8-2.116Zm3.367,2.31A5.035,5.035,0,0,0,6.8,12.294a2.6,2.6,0,0,0,.375-.349,3.536,3.536,0,0,0,.6.795,3.591,3.591,0,0,0,.549.449A6.532,6.532,0,0,1,5.069,13.089ZM8,12.508a3.241,3.241,0,1,1,2.288.943A3.168,3.168,0,0,1,8,12.508Zm4.446,1.131-.349-.349a3.616,3.616,0,0,0,.708-.549,3.471,3.471,0,0,0,.549-.708l.352.346a.123.123,0,0,1,0,.174L12.62,13.638a.123.123,0,0,1-.174,0Zm3.567,2.307a.841.841,0,0,1-1.189,0c-.055-.055.1.12-1.874-2.178l.885-.885,2.129,1.829A.84.84,0,0,1,16.013,15.945Z" transform="translate(-0.04 0.03)" fill="#726a95"/>
            <path id="Path_52" data-name="Path 52" d="M238.848,235.158a2.679,2.679,0,1,0,0,3.79A2.685,2.685,0,0,0,238.848,235.158Zm-.226,3.561a2.36,2.36,0,1,1,.688-1.664A2.338,2.338,0,0,1,238.622,238.718Z" transform="translate(-226.707 -226.801)" fill="#726a95"/>
          </g>
        </g>
      </g>
    </g>
  </g>
</svg>
