<svg xmlns="http://www.w3.org/2000/svg" width="28" height="28" viewBox="0 0 28 28">
  <g id="Group_51" data-name="Group 51" transform="translate(-608.485 -701)">
    <rect id="Rectangle_16" data-name="Rectangle 16" width="28" height="28" rx="5" transform="translate(608.485 701)" fill="#726a95" opacity="0.15"/>
    <g id="user_4_" data-name="user (4)" transform="translate(615.315 706.738)">
      <g id="Design_33_" transform="translate(0 0)">
        <path id="Path_55" data-name="Path 55" d="M54.381,8.279H51.07a1.035,1.035,0,0,0-1.035,1.035v.621H48.793v-2.9h1.449A1.875,1.875,0,0,0,52.1,5.174a1.864,1.864,0,0,0-1.863-1.863h-.5a1.863,1.863,0,1,0-2.312,0h-.5a1.875,1.875,0,0,0-1.863,1.863A1.864,1.864,0,0,0,46.93,7.037h1.449v2.9H47.137V9.314A1.035,1.035,0,0,0,46.1,8.279H42.791a1.035,1.035,0,0,0-1.035,1.035v1.656A1.035,1.035,0,0,0,42.791,12H44.24v2.277a1.035,1.035,0,0,0,1.035,1.035h4.76v.621a1.035,1.035,0,0,0,1.035,1.035h3.312a1.035,1.035,0,0,0,1.035-1.035V14.281a1.035,1.035,0,0,0-1.035-1.035H52.932V12h1.449a1.035,1.035,0,0,0,1.035-1.035V9.314a1.036,1.036,0,0,0-1.035-1.035ZM47.137,1.863a1.449,1.449,0,1,1,1.449,1.449,1.45,1.45,0,0,1-1.449-1.449ZM45.482,5.174A1.459,1.459,0,0,1,46.93,3.725h3.312a1.45,1.45,0,0,1,1.449,1.449,1.459,1.459,0,0,1-1.449,1.449H46.93A1.45,1.45,0,0,1,45.482,5.174Zm-3.312,5.8V9.314a.621.621,0,0,1,.621-.621H46.1a.621.621,0,0,1,.621.621v1.656a.621.621,0,0,1-.621.621H42.791A.621.621,0,0,1,42.17,10.969ZM55,14.281v1.656a.621.621,0,0,1-.621.621H51.07a.621.621,0,0,1-.621-.621V14.281a.621.621,0,0,1,.621-.621h3.312A.621.621,0,0,1,55,14.281Zm-2.484-1.035H51.07a1.035,1.035,0,0,0-1.035,1.035V14.9h-4.76a.621.621,0,0,1-.621-.621V12H46.1a1.035,1.035,0,0,0,1.035-1.035v-.621h2.9v.621A1.035,1.035,0,0,0,51.07,12h1.449v1.242ZM55,10.969a.621.621,0,0,1-.621.621H51.07a.621.621,0,0,1-.621-.621V9.314a.621.621,0,0,1,.621-.621h3.312A.621.621,0,0,1,55,9.314Z" transform="translate(-41.756 0)" fill="#726a95" stroke="#726a95" stroke-width="0.25"/>
        <path id="Path_56" data-name="Path 56" d="M85.582,250.744a.206.206,0,0,0-.207-.207H83.719a.207.207,0,1,0,0,.414h1.656A.206.206,0,0,0,85.582,250.744Z" transform="translate(-81.856 -240.602)" fill="#726a95" stroke="#726a95" stroke-width="0.25"/>
        <path id="Path_57" data-name="Path 57" d="M294.155,250.537H292.5a.207.207,0,1,0,0,.414h1.656a.207.207,0,1,0,0-.414Z" transform="translate(-282.357 -240.602)" fill="#726a95" stroke="#726a95" stroke-width="0.25"/>
        <path id="Path_58" data-name="Path 58" d="M292.293,376.011a.206.206,0,0,0,.207.207h1.656a.207.207,0,0,0,0-.414H292.5A.207.207,0,0,0,292.293,376.011Z" transform="translate(-282.358 -360.902)" fill="#726a95" stroke="#726a95" stroke-width="0.25"/>
        <path id="Path_59" data-name="Path 59" d="M335.911,83.512h-1.656a.207.207,0,1,0,0,.414h1.656a.207.207,0,0,0,0-.414Z" transform="translate(-322.458 -80.2)" fill="#726a95" stroke="#726a95" stroke-width="0.25"/>
        <path id="Path_60" data-name="Path 60" d="M335.911,125.268h-1.656a.207.207,0,1,0,0,.414h1.656a.207.207,0,0,0,0-.414Z" transform="translate(-322.458 -120.301)" fill="#726a95" stroke="#726a95" stroke-width="0.25"/>
      </g>
    </g>
  </g>
</svg>
