<svg xmlns="http://www.w3.org/2000/svg" width="11.962" height="11.962" viewBox="0 0 11.962 11.962">
  <path id="Icon_awesome-linkedin-in" data-name="Icon awesome-linkedin-in" d="M2.678,11.963H.2V3.976h2.48ZM1.436,2.887a1.443,1.443,0,1,1,1.436-1.45A1.448,1.448,0,0,1,1.436,2.887Zm10.523,9.076H9.485V8.075c0-.927-.019-2.115-1.289-2.115-1.289,0-1.487,1.007-1.487,2.048v3.954H4.231V3.976H6.61V5.066h.035a2.606,2.606,0,0,1,2.347-1.29c2.51,0,2.971,1.653,2.971,3.8v4.387Z" transform="translate(0 -0.001)" opacity="0.4"/>
</svg>
